# xmcd
#
# Track frame offsets: 
#        150
#        15526
#        36857
#        59218
#        79740
#        100195
#        123072
#        137676
#        154764
#        177939
#        192983
#        203591
#        216856
#        234362
#        253252
#
# Disc length: 3598 seconds
#
# Revision: 0
# Processed by: cddbd v1.5.2PL0 Copyright (c) Steve Scherf et al.
# Submitted via: ExactAudioCopy v1.3
#
DISCID=cc0e0c0f
DTITLE=LAKI-PopChor - Welcome 
DYEAR=2018
DGENRE=Gospel
TTITLE0=We Lift You Up
TTITLE1=Sweet Jesus
TTITLE2=Welcome Home
TTITLE3=In Jesus' Name
TTITLE4=We Will Sing
TTITLE5=Lean On Me
TTITLE6=Welcome Home, You
TTITLE7=Seite an Seite
TTITLE8=Hallelujah, Christ Is Risen
TTITLE9=You Will Never Run
TTITLE10=Dem Himmel näher
TTITLE11=Halte uns fest
TTITLE12=Quelle des Lebens
TTITLE13=Abendlied
TTITLE14=Peace Be Unto You
EXTD=
EXTT0=
EXTT1=
EXTT2=
EXTT3=
EXTT4=
EXTT5=
EXTT6=
EXTT7=
EXTT8=
EXTT9=
EXTT10=
EXTT11=
EXTT12=
EXTT13=
EXTT14=
PLAYORDER=
